<mxfile host="app.diagrams.net" modified="2023-10-24T14:13:27.097Z" agent="Mozilla/5.0 (Windows NT 10.0; Win64; x64) AppleWebKit/537.36 (KHTML, like Gecko) Chrome/118.0.0.0 Safari/537.36 Edg/118.0.2088.61" etag="ymGx8C7JN93eKeEXq5iV" version="22.0.6" type="device">
  <diagram name="Page-1" id="X2FeLog_ubwmcEvJWv8t">
    <mxGraphModel dx="1006" dy="601" grid="1" gridSize="10" guides="1" tooltips="1" connect="1" arrows="1" fold="1" page="1" pageScale="1" pageWidth="827" pageHeight="1169" math="0" shadow="0">
      <root>
        <mxCell id="0" />
        <mxCell id="1" parent="0" />
        <mxCell id="Phao7U0Y4ZMj5dp_W-zo-1" value="" style="line;strokeWidth=4;html=1;perimeter=backbonePerimeter;points=[];outlineConnect=0;" vertex="1" parent="1">
          <mxGeometry x="380" y="316" width="1060" height="10" as="geometry" />
        </mxCell>
        <mxCell id="Phao7U0Y4ZMj5dp_W-zo-33" value="" style="shape=waypoint;sketch=0;fillStyle=solid;size=6;pointerEvents=1;points=[];fillColor=none;resizable=0;rotatable=0;perimeter=centerPerimeter;snapToPoint=1;" vertex="1" parent="1">
          <mxGeometry x="949" y="393" width="20" height="20" as="geometry" />
        </mxCell>
        <mxCell id="Phao7U0Y4ZMj5dp_W-zo-34" value="" style="line;strokeWidth=2;html=1;rotation=90;" vertex="1" parent="1">
          <mxGeometry x="919" y="356" width="80" height="10" as="geometry" />
        </mxCell>
        <mxCell id="Phao7U0Y4ZMj5dp_W-zo-35" value="" style="line;strokeWidth=2;html=1;rotation=-50;" vertex="1" parent="1">
          <mxGeometry x="876.8299999999999" y="426" width="100" height="34" as="geometry" />
        </mxCell>
        <mxCell id="Phao7U0Y4ZMj5dp_W-zo-36" value="" style="line;strokeWidth=2;html=1;rotation=15;" vertex="1" parent="1">
          <mxGeometry x="860" y="373" width="100" height="34" as="geometry" />
        </mxCell>
        <mxCell id="Phao7U0Y4ZMj5dp_W-zo-37" value="" style="line;strokeWidth=2;html=1;rotation=-15;" vertex="1" parent="1">
          <mxGeometry x="959" y="374" width="100" height="34" as="geometry" />
        </mxCell>
        <mxCell id="Phao7U0Y4ZMj5dp_W-zo-38" value="" style="line;strokeWidth=2;html=1;rotation=-125;" vertex="1" parent="1">
          <mxGeometry x="939.8299999999999" y="429" width="100" height="34" as="geometry" />
        </mxCell>
        <mxCell id="Phao7U0Y4ZMj5dp_W-zo-39" value="" style="line;strokeWidth=2;html=1;rotation=90;" vertex="1" parent="1">
          <mxGeometry x="909" y="450" width="100" height="10" as="geometry" />
        </mxCell>
        <mxCell id="Phao7U0Y4ZMj5dp_W-zo-40" value="" style="shape=waypoint;sketch=0;fillStyle=solid;size=6;pointerEvents=1;points=[];fillColor=none;resizable=0;rotatable=0;perimeter=centerPerimeter;snapToPoint=1;" vertex="1" parent="1">
          <mxGeometry x="788" y="231" width="20" height="20" as="geometry" />
        </mxCell>
        <mxCell id="Phao7U0Y4ZMj5dp_W-zo-41" value="" style="line;strokeWidth=2;html=1;rotation=90;" vertex="1" parent="1">
          <mxGeometry x="758" y="278" width="80" height="10" as="geometry" />
        </mxCell>
        <mxCell id="Phao7U0Y4ZMj5dp_W-zo-42" value="" style="line;strokeWidth=2;html=1;rotation=45;" vertex="1" parent="1">
          <mxGeometry x="712.8300000000002" y="189" width="100" height="34" as="geometry" />
        </mxCell>
        <mxCell id="Phao7U0Y4ZMj5dp_W-zo-43" value="" style="line;strokeWidth=2;html=1;rotation=-15;" vertex="1" parent="1">
          <mxGeometry x="700" y="237" width="100" height="34" as="geometry" />
        </mxCell>
        <mxCell id="Phao7U0Y4ZMj5dp_W-zo-44" value="" style="line;strokeWidth=2;html=1;rotation=15;" vertex="1" parent="1">
          <mxGeometry x="797" y="237" width="100" height="34" as="geometry" />
        </mxCell>
        <mxCell id="Phao7U0Y4ZMj5dp_W-zo-45" value="" style="line;strokeWidth=2;html=1;rotation=-225;" vertex="1" parent="1">
          <mxGeometry x="784.8300000000002" y="188" width="100" height="34" as="geometry" />
        </mxCell>
        <mxCell id="Phao7U0Y4ZMj5dp_W-zo-46" value="" style="line;strokeWidth=2;html=1;rotation=90;" vertex="1" parent="1">
          <mxGeometry x="748" y="186" width="100" height="10" as="geometry" />
        </mxCell>
        <mxCell id="Phao7U0Y4ZMj5dp_W-zo-47" value="" style="shape=waypoint;sketch=0;fillStyle=solid;size=6;pointerEvents=1;points=[];fillColor=none;resizable=0;rotatable=0;perimeter=centerPerimeter;snapToPoint=1;" vertex="1" parent="1">
          <mxGeometry x="1107" y="231" width="20" height="20" as="geometry" />
        </mxCell>
        <mxCell id="Phao7U0Y4ZMj5dp_W-zo-48" value="" style="line;strokeWidth=2;html=1;rotation=90;" vertex="1" parent="1">
          <mxGeometry x="1077" y="278" width="80" height="10" as="geometry" />
        </mxCell>
        <mxCell id="Phao7U0Y4ZMj5dp_W-zo-49" value="" style="line;strokeWidth=2;html=1;rotation=45;" vertex="1" parent="1">
          <mxGeometry x="1031.8300000000002" y="189" width="100" height="34" as="geometry" />
        </mxCell>
        <mxCell id="Phao7U0Y4ZMj5dp_W-zo-50" value="" style="line;strokeWidth=2;html=1;rotation=-15;" vertex="1" parent="1">
          <mxGeometry x="1019" y="237" width="100" height="34" as="geometry" />
        </mxCell>
        <mxCell id="Phao7U0Y4ZMj5dp_W-zo-51" value="" style="line;strokeWidth=2;html=1;rotation=15;" vertex="1" parent="1">
          <mxGeometry x="1116" y="237" width="100" height="34" as="geometry" />
        </mxCell>
        <mxCell id="Phao7U0Y4ZMj5dp_W-zo-52" value="" style="line;strokeWidth=2;html=1;rotation=-225;" vertex="1" parent="1">
          <mxGeometry x="1103.8300000000002" y="188" width="100" height="34" as="geometry" />
        </mxCell>
        <mxCell id="Phao7U0Y4ZMj5dp_W-zo-53" value="" style="line;strokeWidth=2;html=1;rotation=90;" vertex="1" parent="1">
          <mxGeometry x="1067" y="186" width="100" height="10" as="geometry" />
        </mxCell>
        <mxCell id="Phao7U0Y4ZMj5dp_W-zo-54" value="" style="shape=waypoint;sketch=0;fillStyle=solid;size=6;pointerEvents=1;points=[];fillColor=none;resizable=0;rotatable=0;perimeter=centerPerimeter;snapToPoint=1;" vertex="1" parent="1">
          <mxGeometry x="1428" y="231" width="20" height="20" as="geometry" />
        </mxCell>
        <mxCell id="Phao7U0Y4ZMj5dp_W-zo-55" value="" style="line;strokeWidth=2;html=1;rotation=90;" vertex="1" parent="1">
          <mxGeometry x="1398" y="278" width="80" height="10" as="geometry" />
        </mxCell>
        <mxCell id="Phao7U0Y4ZMj5dp_W-zo-56" value="" style="line;strokeWidth=2;html=1;rotation=45;" vertex="1" parent="1">
          <mxGeometry x="1352.8300000000002" y="189" width="100" height="34" as="geometry" />
        </mxCell>
        <mxCell id="Phao7U0Y4ZMj5dp_W-zo-57" value="" style="line;strokeWidth=2;html=1;rotation=-15;" vertex="1" parent="1">
          <mxGeometry x="1340" y="237" width="100" height="34" as="geometry" />
        </mxCell>
        <mxCell id="Phao7U0Y4ZMj5dp_W-zo-58" value="" style="line;strokeWidth=2;html=1;rotation=15;" vertex="1" parent="1">
          <mxGeometry x="1437" y="237" width="100" height="34" as="geometry" />
        </mxCell>
        <mxCell id="Phao7U0Y4ZMj5dp_W-zo-59" value="" style="line;strokeWidth=2;html=1;rotation=-225;" vertex="1" parent="1">
          <mxGeometry x="1424.8300000000002" y="188" width="100" height="34" as="geometry" />
        </mxCell>
        <mxCell id="Phao7U0Y4ZMj5dp_W-zo-60" value="" style="line;strokeWidth=2;html=1;rotation=90;" vertex="1" parent="1">
          <mxGeometry x="1388" y="186" width="100" height="10" as="geometry" />
        </mxCell>
        <mxCell id="Phao7U0Y4ZMj5dp_W-zo-61" value="" style="shape=waypoint;sketch=0;fillStyle=solid;size=6;pointerEvents=1;points=[];fillColor=none;resizable=0;rotatable=0;perimeter=centerPerimeter;snapToPoint=1;" vertex="1" parent="1">
          <mxGeometry x="1269" y="393" width="20" height="20" as="geometry" />
        </mxCell>
        <mxCell id="Phao7U0Y4ZMj5dp_W-zo-62" value="" style="line;strokeWidth=2;html=1;rotation=90;" vertex="1" parent="1">
          <mxGeometry x="1239" y="356" width="80" height="10" as="geometry" />
        </mxCell>
        <mxCell id="Phao7U0Y4ZMj5dp_W-zo-63" value="" style="line;strokeWidth=2;html=1;rotation=-50;" vertex="1" parent="1">
          <mxGeometry x="1196.83" y="426" width="100" height="34" as="geometry" />
        </mxCell>
        <mxCell id="Phao7U0Y4ZMj5dp_W-zo-64" value="" style="line;strokeWidth=2;html=1;rotation=15;" vertex="1" parent="1">
          <mxGeometry x="1180" y="373" width="100" height="34" as="geometry" />
        </mxCell>
        <mxCell id="Phao7U0Y4ZMj5dp_W-zo-65" value="" style="line;strokeWidth=2;html=1;rotation=-15;" vertex="1" parent="1">
          <mxGeometry x="1279" y="374" width="100" height="34" as="geometry" />
        </mxCell>
        <mxCell id="Phao7U0Y4ZMj5dp_W-zo-66" value="" style="line;strokeWidth=2;html=1;rotation=-125;" vertex="1" parent="1">
          <mxGeometry x="1259.83" y="429" width="100" height="34" as="geometry" />
        </mxCell>
        <mxCell id="Phao7U0Y4ZMj5dp_W-zo-67" value="" style="line;strokeWidth=2;html=1;rotation=90;" vertex="1" parent="1">
          <mxGeometry x="1229" y="450" width="100" height="10" as="geometry" />
        </mxCell>
        <mxCell id="Phao7U0Y4ZMj5dp_W-zo-68" value="" style="image;html=1;image=img/lib/clip_art/networking/Router_Icon_128x128.png" vertex="1" parent="1">
          <mxGeometry x="334" y="278" width="80" height="80" as="geometry" />
        </mxCell>
        <mxCell id="Phao7U0Y4ZMj5dp_W-zo-69" value="" style="shape=mxgraph.cisco.misc.access_point;html=1;pointerEvents=1;dashed=0;fillColor=#036897;strokeColor=#ffffff;strokeWidth=2;verticalLabelPosition=bottom;verticalAlign=top;align=center;outlineConnect=0;" vertex="1" parent="1">
          <mxGeometry x="774.5" y="130" width="47" height="20" as="geometry" />
        </mxCell>
        <mxCell id="Phao7U0Y4ZMj5dp_W-zo-70" value="" style="shape=mxgraph.cisco.misc.access_point;html=1;pointerEvents=1;dashed=0;fillColor=#036897;strokeColor=#ffffff;strokeWidth=2;verticalLabelPosition=bottom;verticalAlign=top;align=center;outlineConnect=0;" vertex="1" parent="1">
          <mxGeometry x="1093.5" y="130" width="47" height="20" as="geometry" />
        </mxCell>
        <mxCell id="Phao7U0Y4ZMj5dp_W-zo-71" value="" style="sketch=0;points=[[0.015,0.015,0],[0.985,0.015,0],[0.985,0.985,0],[0.015,0.985,0],[0.25,0,0],[0.5,0,0],[0.75,0,0],[1,0.25,0],[1,0.5,0],[1,0.75,0],[0.75,1,0],[0.5,1,0],[0.25,1,0],[0,0.75,0],[0,0.5,0],[0,0.25,0]];verticalLabelPosition=bottom;html=1;verticalAlign=top;aspect=fixed;align=center;pointerEvents=1;shape=mxgraph.cisco19.rect;prIcon=l2_switch;fillColor=#FAFAFA;strokeColor=#005073;" vertex="1" parent="1">
          <mxGeometry x="772.5" y="207" width="50" height="51" as="geometry" />
        </mxCell>
        <mxCell id="Phao7U0Y4ZMj5dp_W-zo-72" value="" style="shape=mxgraph.arrows2.wedgeArrowDashed2;html=1;bendable=0;startWidth=31;stepSize=15;rounded=0;" edge="1" parent="1">
          <mxGeometry width="100" height="100" relative="1" as="geometry">
            <mxPoint x="800.71" y="69.33" as="sourcePoint" />
            <mxPoint x="799.9962098876232" y="130.00215955203424" as="targetPoint" />
          </mxGeometry>
        </mxCell>
        <mxCell id="Phao7U0Y4ZMj5dp_W-zo-73" value="" style="shape=mxgraph.cisco.misc.access_point;html=1;pointerEvents=1;dashed=0;fillColor=#036897;strokeColor=#ffffff;strokeWidth=2;verticalLabelPosition=bottom;verticalAlign=top;align=center;outlineConnect=0;" vertex="1" parent="1">
          <mxGeometry x="1414.5" y="130" width="47" height="20" as="geometry" />
        </mxCell>
        <mxCell id="Phao7U0Y4ZMj5dp_W-zo-74" value="" style="sketch=0;points=[[0.015,0.015,0],[0.985,0.015,0],[0.985,0.985,0],[0.015,0.985,0],[0.25,0,0],[0.5,0,0],[0.75,0,0],[1,0.25,0],[1,0.5,0],[1,0.75,0],[0.75,1,0],[0.5,1,0],[0.25,1,0],[0,0.75,0],[0,0.5,0],[0,0.25,0]];verticalLabelPosition=bottom;html=1;verticalAlign=top;aspect=fixed;align=center;pointerEvents=1;shape=mxgraph.cisco19.rect;prIcon=l2_switch;fillColor=#FAFAFA;strokeColor=#005073;" vertex="1" parent="1">
          <mxGeometry x="1093.5" y="207" width="50" height="51" as="geometry" />
        </mxCell>
        <mxCell id="Phao7U0Y4ZMj5dp_W-zo-75" value="" style="sketch=0;points=[[0.015,0.015,0],[0.985,0.015,0],[0.985,0.985,0],[0.015,0.985,0],[0.25,0,0],[0.5,0,0],[0.75,0,0],[1,0.25,0],[1,0.5,0],[1,0.75,0],[0.75,1,0],[0.5,1,0],[0.25,1,0],[0,0.75,0],[0,0.5,0],[0,0.25,0]];verticalLabelPosition=bottom;html=1;verticalAlign=top;aspect=fixed;align=center;pointerEvents=1;shape=mxgraph.cisco19.rect;prIcon=l2_switch;fillColor=#FAFAFA;strokeColor=#005073;" vertex="1" parent="1">
          <mxGeometry x="1414.5" y="207" width="50" height="51" as="geometry" />
        </mxCell>
        <mxCell id="Phao7U0Y4ZMj5dp_W-zo-76" value="" style="sketch=0;points=[[0.015,0.015,0],[0.985,0.015,0],[0.985,0.985,0],[0.015,0.985,0],[0.25,0,0],[0.5,0,0],[0.75,0,0],[1,0.25,0],[1,0.5,0],[1,0.75,0],[0.75,1,0],[0.5,1,0],[0.25,1,0],[0,0.75,0],[0,0.5,0],[0,0.25,0]];verticalLabelPosition=bottom;html=1;verticalAlign=top;aspect=fixed;align=center;pointerEvents=1;shape=mxgraph.cisco19.rect;prIcon=l2_switch;fillColor=#FAFAFA;strokeColor=#005073;" vertex="1" parent="1">
          <mxGeometry x="934" y="393" width="50" height="51" as="geometry" />
        </mxCell>
        <mxCell id="Phao7U0Y4ZMj5dp_W-zo-77" value="" style="sketch=0;points=[[0.015,0.015,0],[0.985,0.015,0],[0.985,0.985,0],[0.015,0.985,0],[0.25,0,0],[0.5,0,0],[0.75,0,0],[1,0.25,0],[1,0.5,0],[1,0.75,0],[0.75,1,0],[0.5,1,0],[0.25,1,0],[0,0.75,0],[0,0.5,0],[0,0.25,0]];verticalLabelPosition=bottom;html=1;verticalAlign=top;aspect=fixed;align=center;pointerEvents=1;shape=mxgraph.cisco19.rect;prIcon=l2_switch;fillColor=#FAFAFA;strokeColor=#005073;" vertex="1" parent="1">
          <mxGeometry x="1254" y="393" width="50" height="51" as="geometry" />
        </mxCell>
        <mxCell id="Phao7U0Y4ZMj5dp_W-zo-78" value="" style="shape=mxgraph.cisco.misc.access_point;html=1;pointerEvents=1;dashed=0;fillColor=#036897;strokeColor=#ffffff;strokeWidth=2;verticalLabelPosition=bottom;verticalAlign=top;align=center;outlineConnect=0;" vertex="1" parent="1">
          <mxGeometry x="934" y="500" width="47" height="20" as="geometry" />
        </mxCell>
        <mxCell id="Phao7U0Y4ZMj5dp_W-zo-79" value="" style="shape=mxgraph.cisco.misc.access_point;html=1;pointerEvents=1;dashed=0;fillColor=#036897;strokeColor=#ffffff;strokeWidth=2;verticalLabelPosition=bottom;verticalAlign=top;align=center;outlineConnect=0;" vertex="1" parent="1">
          <mxGeometry x="1257" y="500" width="47" height="20" as="geometry" />
        </mxCell>
        <mxCell id="Phao7U0Y4ZMj5dp_W-zo-80" value="" style="shape=mxgraph.arrows2.wedgeArrowDashed2;html=1;bendable=0;startWidth=31;stepSize=15;rounded=0;" edge="1" parent="1">
          <mxGeometry width="100" height="100" relative="1" as="geometry">
            <mxPoint x="1118.63" y="69.33" as="sourcePoint" />
            <mxPoint x="1117.9162098876232" y="130.00215955203424" as="targetPoint" />
          </mxGeometry>
        </mxCell>
        <mxCell id="Phao7U0Y4ZMj5dp_W-zo-81" value="" style="shape=mxgraph.arrows2.wedgeArrowDashed2;html=1;bendable=0;startWidth=31;stepSize=15;rounded=0;" edge="1" parent="1">
          <mxGeometry width="100" height="100" relative="1" as="geometry">
            <mxPoint x="1440.71" y="69.33" as="sourcePoint" />
            <mxPoint x="1439.996209887623" y="130.00215955203424" as="targetPoint" />
          </mxGeometry>
        </mxCell>
        <mxCell id="Phao7U0Y4ZMj5dp_W-zo-82" value="" style="shape=mxgraph.arrows2.wedgeArrowDashed2;html=1;bendable=0;startWidth=31;stepSize=15;rounded=0;" edge="1" parent="1">
          <mxGeometry width="100" height="100" relative="1" as="geometry">
            <mxPoint x="957" y="580" as="sourcePoint" />
            <mxPoint x="957.31" y="519" as="targetPoint" />
          </mxGeometry>
        </mxCell>
        <mxCell id="Phao7U0Y4ZMj5dp_W-zo-83" value="" style="shape=mxgraph.arrows2.wedgeArrowDashed2;html=1;bendable=0;startWidth=31;stepSize=15;rounded=0;" edge="1" parent="1">
          <mxGeometry width="100" height="100" relative="1" as="geometry">
            <mxPoint x="1277.57" y="580" as="sourcePoint" />
            <mxPoint x="1277.8799999999999" y="519" as="targetPoint" />
          </mxGeometry>
        </mxCell>
        <mxCell id="Phao7U0Y4ZMj5dp_W-zo-84" value="" style="fontColor=#0066CC;verticalAlign=top;verticalLabelPosition=bottom;labelPosition=center;align=center;html=1;outlineConnect=0;fillColor=#CCCCCC;strokeColor=#6881B3;gradientColor=none;gradientDirection=north;strokeWidth=2;shape=mxgraph.networks.pc;" vertex="1" parent="1">
          <mxGeometry x="690" y="130" width="42" height="40" as="geometry" />
        </mxCell>
        <mxCell id="Phao7U0Y4ZMj5dp_W-zo-85" value="" style="fontColor=#0066CC;verticalAlign=top;verticalLabelPosition=bottom;labelPosition=center;align=center;html=1;outlineConnect=0;fillColor=#CCCCCC;strokeColor=#6881B3;gradientColor=none;gradientDirection=north;strokeWidth=2;shape=mxgraph.networks.pc;" vertex="1" parent="1">
          <mxGeometry x="659" y="249" width="42" height="40" as="geometry" />
        </mxCell>
        <mxCell id="Phao7U0Y4ZMj5dp_W-zo-86" value="" style="fontColor=#0066CC;verticalAlign=top;verticalLabelPosition=bottom;labelPosition=center;align=center;html=1;outlineConnect=0;fillColor=#CCCCCC;strokeColor=#6881B3;gradientColor=none;gradientDirection=north;strokeWidth=2;shape=mxgraph.networks.pc;" vertex="1" parent="1">
          <mxGeometry x="860" y="130" width="42" height="40" as="geometry" />
        </mxCell>
        <mxCell id="Phao7U0Y4ZMj5dp_W-zo-87" value="" style="points=[[0.22,0.185,0],[0.5,0,0],[0.78,0.185,0],[0.975,0.49,0],[1,0.73,0],[0.975,0.97,0],[0.5,1,0],[0.025,0.97,0],[0,0.73,0],[0.025,0.49,0]];verticalLabelPosition=bottom;sketch=0;html=1;verticalAlign=top;aspect=fixed;align=center;pointerEvents=1;shape=mxgraph.cisco19.printer;fillColor=#005073;strokeColor=none;" vertex="1" parent="1">
          <mxGeometry x="894" y="246" width="46.67" height="42" as="geometry" />
        </mxCell>
        <mxCell id="Phao7U0Y4ZMj5dp_W-zo-88" value="" style="points=[[0.22,0.185,0],[0.5,0,0],[0.78,0.185,0],[0.975,0.49,0],[1,0.73,0],[0.975,0.97,0],[0.5,1,0],[0.025,0.97,0],[0,0.73,0],[0.025,0.49,0]];verticalLabelPosition=bottom;sketch=0;html=1;verticalAlign=top;aspect=fixed;align=center;pointerEvents=1;shape=mxgraph.cisco19.printer;fillColor=#005073;strokeColor=none;" vertex="1" parent="1">
          <mxGeometry x="1213.33" y="246" width="46.67" height="42" as="geometry" />
        </mxCell>
        <mxCell id="Phao7U0Y4ZMj5dp_W-zo-89" value="" style="points=[[0.22,0.185,0],[0.5,0,0],[0.78,0.185,0],[0.975,0.49,0],[1,0.73,0],[0.975,0.97,0],[0.5,1,0],[0.025,0.97,0],[0,0.73,0],[0.025,0.49,0]];verticalLabelPosition=bottom;sketch=0;html=1;verticalAlign=top;aspect=fixed;align=center;pointerEvents=1;shape=mxgraph.cisco19.printer;fillColor=#005073;strokeColor=none;" vertex="1" parent="1">
          <mxGeometry x="1534" y="246" width="46.67" height="42" as="geometry" />
        </mxCell>
        <mxCell id="Phao7U0Y4ZMj5dp_W-zo-90" value="" style="fontColor=#0066CC;verticalAlign=top;verticalLabelPosition=bottom;labelPosition=center;align=center;html=1;outlineConnect=0;fillColor=#CCCCCC;strokeColor=#6881B3;gradientColor=none;gradientDirection=north;strokeWidth=2;shape=mxgraph.networks.pc;" vertex="1" parent="1">
          <mxGeometry x="1008" y="130" width="42" height="40" as="geometry" />
        </mxCell>
        <mxCell id="Phao7U0Y4ZMj5dp_W-zo-91" value="" style="fontColor=#0066CC;verticalAlign=top;verticalLabelPosition=bottom;labelPosition=center;align=center;html=1;outlineConnect=0;fillColor=#CCCCCC;strokeColor=#6881B3;gradientColor=none;gradientDirection=north;strokeWidth=2;shape=mxgraph.networks.pc;" vertex="1" parent="1">
          <mxGeometry x="1179" y="130" width="42" height="40" as="geometry" />
        </mxCell>
        <mxCell id="Phao7U0Y4ZMj5dp_W-zo-92" value="" style="fontColor=#0066CC;verticalAlign=top;verticalLabelPosition=bottom;labelPosition=center;align=center;html=1;outlineConnect=0;fillColor=#CCCCCC;strokeColor=#6881B3;gradientColor=none;gradientDirection=north;strokeWidth=2;shape=mxgraph.networks.pc;" vertex="1" parent="1">
          <mxGeometry x="978.83" y="249" width="42" height="40" as="geometry" />
        </mxCell>
        <mxCell id="Phao7U0Y4ZMj5dp_W-zo-93" value="" style="fontColor=#0066CC;verticalAlign=top;verticalLabelPosition=bottom;labelPosition=center;align=center;html=1;outlineConnect=0;fillColor=#CCCCCC;strokeColor=#6881B3;gradientColor=none;gradientDirection=north;strokeWidth=2;shape=mxgraph.networks.pc;" vertex="1" parent="1">
          <mxGeometry x="1328" y="131" width="42" height="40" as="geometry" />
        </mxCell>
        <mxCell id="Phao7U0Y4ZMj5dp_W-zo-94" value="" style="fontColor=#0066CC;verticalAlign=top;verticalLabelPosition=bottom;labelPosition=center;align=center;html=1;outlineConnect=0;fillColor=#CCCCCC;strokeColor=#6881B3;gradientColor=none;gradientDirection=north;strokeWidth=2;shape=mxgraph.networks.pc;" vertex="1" parent="1">
          <mxGeometry x="1499" y="129" width="42" height="40" as="geometry" />
        </mxCell>
        <mxCell id="Phao7U0Y4ZMj5dp_W-zo-95" value="" style="fontColor=#0066CC;verticalAlign=top;verticalLabelPosition=bottom;labelPosition=center;align=center;html=1;outlineConnect=0;fillColor=#CCCCCC;strokeColor=#6881B3;gradientColor=none;gradientDirection=north;strokeWidth=2;shape=mxgraph.networks.pc;" vertex="1" parent="1">
          <mxGeometry x="1299" y="249" width="42" height="40" as="geometry" />
        </mxCell>
        <mxCell id="Phao7U0Y4ZMj5dp_W-zo-96" value="" style="points=[[0.22,0.185,0],[0.5,0,0],[0.78,0.185,0],[0.975,0.49,0],[1,0.73,0],[0.975,0.97,0],[0.5,1,0],[0.025,0.97,0],[0,0.73,0],[0.025,0.49,0]];verticalLabelPosition=bottom;sketch=0;html=1;verticalAlign=top;aspect=fixed;align=center;pointerEvents=1;shape=mxgraph.cisco19.printer;fillColor=#005073;strokeColor=none;" vertex="1" parent="1">
          <mxGeometry x="1134.33" y="346" width="46.67" height="42" as="geometry" />
        </mxCell>
        <mxCell id="Phao7U0Y4ZMj5dp_W-zo-97" value="" style="points=[[0.22,0.185,0],[0.5,0,0],[0.78,0.185,0],[0.975,0.49,0],[1,0.73,0],[0.975,0.97,0],[0.5,1,0],[0.025,0.97,0],[0,0.73,0],[0.025,0.49,0]];verticalLabelPosition=bottom;sketch=0;html=1;verticalAlign=top;aspect=fixed;align=center;pointerEvents=1;shape=mxgraph.cisco19.printer;fillColor=#005073;strokeColor=none;" vertex="1" parent="1">
          <mxGeometry x="815.5" y="346" width="46.67" height="42" as="geometry" />
        </mxCell>
        <mxCell id="Phao7U0Y4ZMj5dp_W-zo-98" value="" style="fontColor=#0066CC;verticalAlign=top;verticalLabelPosition=bottom;labelPosition=center;align=center;html=1;outlineConnect=0;fillColor=#CCCCCC;strokeColor=#6881B3;gradientColor=none;gradientDirection=north;strokeWidth=2;shape=mxgraph.networks.pc;" vertex="1" parent="1">
          <mxGeometry x="1058" y="356" width="42" height="40" as="geometry" />
        </mxCell>
        <mxCell id="Phao7U0Y4ZMj5dp_W-zo-99" value="" style="fontColor=#0066CC;verticalAlign=top;verticalLabelPosition=bottom;labelPosition=center;align=center;html=1;outlineConnect=0;fillColor=#CCCCCC;strokeColor=#6881B3;gradientColor=none;gradientDirection=north;strokeWidth=2;shape=mxgraph.networks.pc;" vertex="1" parent="1">
          <mxGeometry x="1378" y="361" width="42" height="40" as="geometry" />
        </mxCell>
        <mxCell id="Phao7U0Y4ZMj5dp_W-zo-100" value="" style="fontColor=#0066CC;verticalAlign=top;verticalLabelPosition=bottom;labelPosition=center;align=center;html=1;outlineConnect=0;fillColor=#CCCCCC;strokeColor=#6881B3;gradientColor=none;gradientDirection=north;strokeWidth=2;shape=mxgraph.networks.pc;" vertex="1" parent="1">
          <mxGeometry x="1017.83" y="463" width="42" height="40" as="geometry" />
        </mxCell>
        <mxCell id="Phao7U0Y4ZMj5dp_W-zo-101" value="" style="fontColor=#0066CC;verticalAlign=top;verticalLabelPosition=bottom;labelPosition=center;align=center;html=1;outlineConnect=0;fillColor=#CCCCCC;strokeColor=#6881B3;gradientColor=none;gradientDirection=north;strokeWidth=2;shape=mxgraph.networks.pc;" vertex="1" parent="1">
          <mxGeometry x="854" y="460" width="42" height="40" as="geometry" />
        </mxCell>
        <mxCell id="Phao7U0Y4ZMj5dp_W-zo-102" value="" style="fontColor=#0066CC;verticalAlign=top;verticalLabelPosition=bottom;labelPosition=center;align=center;html=1;outlineConnect=0;fillColor=#CCCCCC;strokeColor=#6881B3;gradientColor=none;gradientDirection=north;strokeWidth=2;shape=mxgraph.networks.pc;" vertex="1" parent="1">
          <mxGeometry x="1173.33" y="463" width="42" height="40" as="geometry" />
        </mxCell>
        <mxCell id="Phao7U0Y4ZMj5dp_W-zo-103" value="" style="fontColor=#0066CC;verticalAlign=top;verticalLabelPosition=bottom;labelPosition=center;align=center;html=1;outlineConnect=0;fillColor=#CCCCCC;strokeColor=#6881B3;gradientColor=none;gradientDirection=north;strokeWidth=2;shape=mxgraph.networks.pc;" vertex="1" parent="1">
          <mxGeometry x="1336" y="463" width="42" height="40" as="geometry" />
        </mxCell>
        <mxCell id="Phao7U0Y4ZMj5dp_W-zo-104" value="" style="fontColor=#0066CC;verticalAlign=top;verticalLabelPosition=bottom;labelPosition=center;align=center;html=1;outlineConnect=0;fillColor=#CCCCCC;strokeColor=#6881B3;gradientColor=none;gradientDirection=north;strokeWidth=2;shape=mxgraph.networks.laptop;" vertex="1" parent="1">
          <mxGeometry x="1067" y="20" width="40" height="30" as="geometry" />
        </mxCell>
        <mxCell id="Phao7U0Y4ZMj5dp_W-zo-105" value="" style="sketch=0;pointerEvents=1;shadow=0;dashed=0;html=1;strokeColor=none;fillColor=#505050;labelPosition=center;verticalLabelPosition=bottom;verticalAlign=top;outlineConnect=0;align=center;shape=mxgraph.office.devices.tablet_ipad;" vertex="1" parent="1">
          <mxGeometry x="1150" y="20" width="26" height="30" as="geometry" />
        </mxCell>
        <mxCell id="Phao7U0Y4ZMj5dp_W-zo-106" value="" style="fontColor=#0066CC;verticalAlign=top;verticalLabelPosition=bottom;labelPosition=center;align=center;html=1;outlineConnect=0;fillColor=#CCCCCC;strokeColor=#6881B3;gradientColor=none;gradientDirection=north;strokeWidth=2;shape=mxgraph.networks.laptop;" vertex="1" parent="1">
          <mxGeometry x="748" y="20" width="40" height="30" as="geometry" />
        </mxCell>
        <mxCell id="Phao7U0Y4ZMj5dp_W-zo-107" value="" style="sketch=0;pointerEvents=1;shadow=0;dashed=0;html=1;strokeColor=none;fillColor=#505050;labelPosition=center;verticalLabelPosition=bottom;verticalAlign=top;outlineConnect=0;align=center;shape=mxgraph.office.devices.tablet_ipad;" vertex="1" parent="1">
          <mxGeometry x="831" y="20" width="26" height="30" as="geometry" />
        </mxCell>
        <mxCell id="Phao7U0Y4ZMj5dp_W-zo-108" value="" style="fontColor=#0066CC;verticalAlign=top;verticalLabelPosition=bottom;labelPosition=center;align=center;html=1;outlineConnect=0;fillColor=#CCCCCC;strokeColor=#6881B3;gradientColor=none;gradientDirection=north;strokeWidth=2;shape=mxgraph.networks.laptop;" vertex="1" parent="1">
          <mxGeometry x="1383.5" y="20" width="40" height="30" as="geometry" />
        </mxCell>
        <mxCell id="Phao7U0Y4ZMj5dp_W-zo-109" value="" style="sketch=0;pointerEvents=1;shadow=0;dashed=0;html=1;strokeColor=none;fillColor=#505050;labelPosition=center;verticalLabelPosition=bottom;verticalAlign=top;outlineConnect=0;align=center;shape=mxgraph.office.devices.tablet_ipad;" vertex="1" parent="1">
          <mxGeometry x="1466.5" y="20" width="26" height="30" as="geometry" />
        </mxCell>
        <mxCell id="Phao7U0Y4ZMj5dp_W-zo-110" value="" style="fontColor=#0066CC;verticalAlign=top;verticalLabelPosition=bottom;labelPosition=center;align=center;html=1;outlineConnect=0;fillColor=#CCCCCC;strokeColor=#6881B3;gradientColor=none;gradientDirection=north;strokeWidth=2;shape=mxgraph.networks.laptop;" vertex="1" parent="1">
          <mxGeometry x="1224.5" y="590" width="40" height="30" as="geometry" />
        </mxCell>
        <mxCell id="Phao7U0Y4ZMj5dp_W-zo-111" value="" style="sketch=0;pointerEvents=1;shadow=0;dashed=0;html=1;strokeColor=none;fillColor=#505050;labelPosition=center;verticalLabelPosition=bottom;verticalAlign=top;outlineConnect=0;align=center;shape=mxgraph.office.devices.tablet_ipad;" vertex="1" parent="1">
          <mxGeometry x="1307.5" y="590" width="26" height="30" as="geometry" />
        </mxCell>
        <mxCell id="Phao7U0Y4ZMj5dp_W-zo-112" value="" style="fontColor=#0066CC;verticalAlign=top;verticalLabelPosition=bottom;labelPosition=center;align=center;html=1;outlineConnect=0;fillColor=#CCCCCC;strokeColor=#6881B3;gradientColor=none;gradientDirection=north;strokeWidth=2;shape=mxgraph.networks.laptop;" vertex="1" parent="1">
          <mxGeometry x="900" y="590" width="40" height="30" as="geometry" />
        </mxCell>
        <mxCell id="Phao7U0Y4ZMj5dp_W-zo-113" value="" style="sketch=0;pointerEvents=1;shadow=0;dashed=0;html=1;strokeColor=none;fillColor=#505050;labelPosition=center;verticalLabelPosition=bottom;verticalAlign=top;outlineConnect=0;align=center;shape=mxgraph.office.devices.tablet_ipad;" vertex="1" parent="1">
          <mxGeometry x="983" y="590" width="26" height="30" as="geometry" />
        </mxCell>
        <mxCell id="Phao7U0Y4ZMj5dp_W-zo-115" value="" style="sketch=0;outlineConnect=0;fontColor=#232F3E;gradientColor=none;fillColor=#232F3D;strokeColor=none;dashed=0;verticalLabelPosition=bottom;verticalAlign=top;align=center;html=1;fontSize=12;fontStyle=0;aspect=fixed;pointerEvents=1;shape=mxgraph.aws4.traditional_server;" vertex="1" parent="1">
          <mxGeometry x="640" y="171" width="32.65" height="56.6" as="geometry" />
        </mxCell>
        <mxCell id="Phao7U0Y4ZMj5dp_W-zo-116" value="" style="line;strokeWidth=2;html=1;rotation=15;" vertex="1" parent="1">
          <mxGeometry x="670.23" y="203.32" width="104.25" height="34" as="geometry" />
        </mxCell>
      </root>
    </mxGraphModel>
  </diagram>
</mxfile>
